<svg version="1.1" xmlns="http://www.w3.org/2000/svg" xmlns:xlink="http://www.w3.org/1999/xlink" viewBox="0 0 172 172"><g fill="none" fill-rule="nonzero" stroke="none" stroke-width="1" stroke-linecap="butt" stroke-linejoin="miter" stroke-miterlimit="10" stroke-dasharray="" stroke-dashoffset="0" font-family="none" font-weight="none" font-size="none" text-anchor="none" style="mix-blend-mode: normal"><path d="M0,172v-172h172v172z" fill="none"></path><g fill="#000000"><path d="M28.66667,0v50.16667h-21.5c-3.94726,0 -7.16667,3.2194 -7.16667,7.16667v78.83333c0,3.94726 3.2194,7.16667 7.16667,7.16667h21.5v28.66667h114.66667v-28.66667h21.5c3.94726,0 7.16667,-3.2194 7.16667,-7.16667v-78.83333c0,-3.94726 -3.2194,-7.16667 -7.16667,-7.16667h-21.5v-50.16667zM43,14.33333h86v35.83333h-86zM150.5,64.5c3.94726,0 7.16667,3.2194 7.16667,7.16667c0,3.94726 -3.2194,7.16667 -7.16667,7.16667c-3.94726,0 -7.16667,-3.2194 -7.16667,-7.16667c0,-3.94726 3.2194,-7.16667 7.16667,-7.16667zM43,107.5h86v50.16667h-86zM57.33333,121.83333v7.16667h57.33333v-7.16667zM57.33333,136.16667v7.16667h35.83333v-7.16667z"></path></g></g></svg>